<?xml version="1.0" encoding="UTF-8"?>
<svg width="800" height="600" viewBox="0 0 800 600" fill="none" xmlns="http://www.w3.org/2000/svg">
    <rect width="800" height="600" fill="#1F2937"/>
    <g transform="translate(200,100)">
        <!-- Folder Shape -->
        <path d="M20 80C20 68.9543 28.9543 60 40 60H140L160 80H360C371.046 80 380 88.9543 380 100V420C380 431.046 371.046 440 360 440H40C28.9543 440 20 431.046 20 420V80Z" fill="#374151"/>
        
        <!-- Folder Top -->
        <path d="M40 60H140L160 80H360C371.046 80 380 88.9543 380 100V120H20V80C20 68.9543 28.9543 60 40 60Z" fill="#4B5563"/>
        
        <!-- Decorative Lines -->
        <rect x="60" y="180" width="280" height="20" rx="4" fill="#DC2626" fill-opacity="0.8"/>
        <rect x="60" y="240" width="200" height="20" rx="4" fill="#9CA3AF" fill-opacity="0.6"/>
        <rect x="60" y="300" width="240" height="20" rx="4" fill="#DC2626" fill-opacity="0.8"/>
        <rect x="60" y="360" width="160" height="20" rx="4" fill="#9CA3AF" fill-opacity="0.6"/>
    </g>
</svg> 